<svg width="240" height="240" viewBox="0 0 240 240" fill="none" xmlns="http://www.w3.org/2000/svg">
<rect width="240" height="240" fill="url(#paint0_radial_74_101)"/>
<path fill-rule="evenodd" clip-rule="evenodd" d="M126.649 168.719C126.555 168.744 126.461 168.768 126.366 168.792C125.98 168.89 125.592 168.985 125.204 169.074C125.112 169.095 125.02 169.115 124.927 169.136C124.54 169.223 124.152 169.306 123.763 169.383C123.661 169.404 123.559 169.423 123.456 169.443C123.08 169.515 122.702 169.585 122.323 169.649C122.203 169.669 122.082 169.688 121.961 169.708C121.603 169.766 121.244 169.821 120.885 169.872C120.739 169.892 120.593 169.911 120.448 169.93C120.113 169.974 119.778 170.015 119.443 170.053C119.27 170.072 119.097 170.089 118.924 170.107C118.614 170.138 118.306 170.168 117.996 170.193C117.797 170.21 117.596 170.224 117.396 170.238C117.112 170.258 116.827 170.277 116.542 170.292C116.319 170.304 116.096 170.313 115.873 170.323C115.609 170.333 115.344 170.343 115.08 170.349C114.84 170.356 114.599 170.359 114.358 170.362C114.108 170.364 113.858 170.366 113.608 170.365C113.359 170.364 113.111 170.36 112.863 170.355C112.615 170.35 112.367 170.345 112.119 170.337C111.876 170.329 111.633 170.318 111.389 170.306C111.132 170.294 110.874 170.28 110.616 170.264C110.521 170.258 110.425 170.255 110.331 170.248C110.242 170.242 110.155 170.231 110.067 170.224C109.52 170.184 108.972 170.134 108.426 170.076C108.349 170.067 108.271 170.061 108.194 170.052C108.121 170.044 108.047 170.038 107.974 170.029C107.542 169.979 107.114 169.913 106.684 169.852C106.497 169.825 106.31 169.803 106.123 169.774C105.581 169.69 105.043 169.593 104.505 169.491C104.368 169.465 104.23 169.444 104.093 169.416C103.538 169.307 102.986 169.183 102.436 169.055C102.314 169.027 102.191 169.003 102.069 168.973C101.527 168.843 100.99 168.699 100.453 168.551C100.321 168.515 100.189 168.483 100.057 168.445C99.548 168.301 99.043 168.143 98.5392 167.982C98.3806 167.932 98.2208 167.886 98.0626 167.834C97.5972 167.68 97.1362 167.514 96.6753 167.347C96.4814 167.277 96.2856 167.212 96.0917 167.139C95.6756 166.983 95.2647 166.815 94.8526 166.648C94.6183 166.553 94.3824 166.462 94.1497 166.363C93.7849 166.209 93.4252 166.044 93.0644 165.881C92.7897 165.758 92.5137 165.638 92.241 165.509C91.923 165.359 91.6098 165.198 91.295 165.041C90.9874 164.889 90.6782 164.739 90.3739 164.579C90.0911 164.431 89.8132 164.274 89.5332 164.121C89.2056 163.941 88.8764 163.764 88.5524 163.577C88.2901 163.426 88.0326 163.266 87.7726 163.109C87.4414 162.91 87.1086 162.713 86.7814 162.506C86.5179 162.339 86.2596 162.163 85.9992 161.991C85.6873 161.786 85.3733 161.583 85.0661 161.37C84.7749 161.169 84.4902 160.958 84.2034 160.75C83.9379 160.557 83.67 160.369 83.408 160.171C83.0572 159.907 82.7144 159.632 82.3704 159.358C82.1845 159.21 81.9955 159.066 81.8117 158.915C81.3607 158.546 80.9194 158.165 80.4816 157.779C80.4219 157.727 80.3599 157.678 80.3006 157.625C80.2966 157.621 80.2926 157.617 80.2886 157.613C79.7042 157.093 79.1287 156.563 78.5688 156.014C77.4931 154.961 77.4747 153.235 78.5288 152.16C79.5833 151.084 81.3098 151.066 82.3848 152.119C82.909 152.633 83.4501 153.129 83.9988 153.615C84.4217 153.99 84.851 154.357 85.2876 154.715C85.4229 154.826 85.5623 154.932 85.6993 155.041C86.0333 155.309 86.3677 155.576 86.7089 155.833C86.9204 155.992 87.1367 156.144 87.3501 156.3C87.6277 156.501 87.9036 156.705 88.1856 156.9C88.4427 157.077 88.705 157.247 88.9653 157.419C89.2144 157.584 89.4615 157.752 89.7134 157.911C89.9926 158.087 90.2769 158.255 90.5593 158.426C90.8028 158.572 91.0447 158.722 91.2906 158.865C91.5705 159.026 91.8553 159.179 92.1384 159.335C92.3968 159.476 92.6531 159.621 92.9142 159.757C93.1785 159.896 93.4477 160.026 93.7148 160.159C94.0016 160.303 94.2875 160.449 94.5779 160.586C94.817 160.699 95.0597 160.804 95.3004 160.912C95.6256 161.059 95.9496 161.208 96.278 161.347C96.485 161.434 96.6953 161.515 96.9035 161.599C97.2712 161.748 97.6381 161.898 98.0093 162.038C98.1819 162.103 98.3565 162.161 98.53 162.223C98.9409 162.372 99.3526 162.521 99.7675 162.657C99.9077 162.703 100.05 162.744 100.191 162.789C100.641 162.932 101.092 163.073 101.546 163.202C101.663 163.236 101.783 163.265 101.902 163.298C102.379 163.429 102.858 163.557 103.34 163.673C103.449 163.7 103.561 163.722 103.671 163.747C104.161 163.861 104.652 163.971 105.145 164.068C105.266 164.092 105.389 164.111 105.511 164.134C105.992 164.225 106.473 164.312 106.958 164.387C107.12 164.413 107.284 164.431 107.447 164.455C107.899 164.52 108.351 164.584 108.805 164.635C108.871 164.642 108.938 164.648 109.004 164.656C109.495 164.708 109.987 164.752 110.48 164.789C110.639 164.801 110.797 164.813 110.955 164.823C111.192 164.839 111.429 164.851 111.666 164.862C111.876 164.872 112.086 164.881 112.295 164.889C112.524 164.896 112.754 164.901 112.984 164.906C113.196 164.909 113.408 164.913 113.621 164.914C113.854 164.915 114.087 164.913 114.321 164.911C114.525 164.909 114.73 164.906 114.934 164.901C115.18 164.895 115.427 164.886 115.673 164.875C115.861 164.868 116.049 164.86 116.237 164.85C116.503 164.836 116.768 164.819 117.033 164.8C117.2 164.788 117.366 164.776 117.533 164.762C117.821 164.738 118.109 164.711 118.397 164.682C118.539 164.668 118.681 164.654 118.823 164.638C119.135 164.603 119.447 164.565 119.758 164.524C119.875 164.508 119.992 164.493 120.108 164.477C120.442 164.43 120.775 164.379 121.108 164.325C121.202 164.309 121.297 164.294 121.392 164.278C121.742 164.219 122.092 164.156 122.44 164.088C122.519 164.073 122.598 164.057 122.676 164.042C123.035 163.971 123.392 163.895 123.749 163.814C123.82 163.798 123.892 163.783 123.963 163.767C124.32 163.685 124.676 163.598 125.03 163.507C125.105 163.489 125.179 163.47 125.253 163.451C125.596 163.361 125.939 163.266 126.28 163.169C126.37 163.143 126.459 163.118 126.548 163.091C126.864 162.999 127.179 162.902 127.493 162.803C127.613 162.765 127.733 162.727 127.853 162.687C128.126 162.598 128.398 162.506 128.669 162.411C128.835 162.353 129.001 162.296 129.166 162.235C129.923 161.962 130.673 161.671 131.413 161.357C132.798 160.768 134.4 161.415 134.988 162.801C135.577 164.186 134.93 165.787 133.544 166.375C132.853 166.668 132.154 166.94 131.45 167.202C131.414 167.217 131.38 167.233 131.344 167.247C131.24 167.285 131.136 167.32 131.032 167.358C130.84 167.427 130.648 167.494 130.456 167.56C130.159 167.664 129.861 167.766 129.561 167.864C129.419 167.91 129.276 167.956 129.133 168C128.79 168.11 128.446 168.215 128.101 168.317C127.991 168.349 127.88 168.38 127.77 168.412C127.398 168.519 127.024 168.621 126.649 168.719ZM144.434 126.79C144.776 125.26 145.004 123.688 145.114 122.118C145.7 113.7 142.951 105.573 137.374 99.2375C131.885 93.0009 124.297 89.2492 116.008 88.6731C113.096 88.4706 110.176 88.6715 107.33 89.2724C105.858 89.5803 104.409 88.6399 104.099 87.167C103.788 85.6941 104.731 84.2485 106.204 83.9378C109.544 83.234 112.97 82.997 116.387 83.2348C126.117 83.9114 135.025 88.3152 141.468 95.6364C148.015 103.074 151.242 112.613 150.554 122.498C150.426 124.338 150.157 126.181 149.757 127.975C149.461 129.309 148.233 130.195 146.91 130.103C146.775 130.093 146.639 130.073 146.503 130.043C145.033 129.716 144.107 128.259 144.434 126.79ZM133.169 64.6085C131.747 64.1133 130.995 62.5603 131.491 61.1383C131.986 59.7163 133.541 58.9652 134.962 59.4604C145.322 63.0656 154.651 69.349 161.94 77.6298C170.489 87.343 175.844 99.2377 177.426 112.028C177.611 113.522 176.549 114.883 175.055 115.067C174.877 115.09 174.7 115.094 174.528 115.082C173.252 114.994 172.176 114.013 172.014 112.697C170.566 100.999 165.667 90.1178 157.846 81.2313C151.176 73.6543 142.642 67.9058 133.169 64.6085ZM175.155 123.25C176.654 123.397 177.749 124.73 177.602 126.229C176.007 142.428 168.392 157.275 156.161 168.034C148.474 174.795 139.578 179.498 129.722 182.012C129.432 182.086 129.14 182.11 128.858 182.091C127.716 182.011 126.704 181.214 126.405 180.044C126.033 178.586 126.915 177.102 128.374 176.73C137.387 174.431 145.524 170.129 152.558 163.941C163.748 154.098 170.715 140.516 172.175 125.695C172.322 124.196 173.678 123.127 175.155 123.25ZM92.7803 89.7526C94.0163 88.8894 95.7156 89.1937 96.577 90.4264C97.4397 91.6602 97.1381 93.3597 95.9034 94.2217C95.6046 94.4306 95.3087 94.6476 95.0155 94.8678C94.9146 94.9775 94.806 95.082 94.6847 95.1761C93.7575 95.8955 92.8584 96.6786 92.013 97.5021C91.4699 98.0318 90.7618 98.2888 90.059 98.2756C89.3669 98.2628 88.6788 97.9873 88.1574 97.4525C87.1061 96.3747 87.1285 94.6484 88.2071 93.5983C88.5094 93.3037 88.8194 93.015 89.1334 92.73C89.2435 92.5826 89.3701 92.4445 89.5143 92.318C90.5532 91.4036 91.6521 90.5409 92.7803 89.7526ZM143.908 159.542C143.186 159.492 142.485 159.156 141.99 158.553C141.034 157.39 141.203 155.672 142.366 154.717C142.766 154.389 143.161 154.052 143.553 153.709C152.503 145.837 157.888 134.954 158.715 123.067C159.365 113.733 157.156 104.597 152.327 96.6458C151.544 95.3587 151.954 93.6821 153.241 92.901C154.529 92.1175 156.206 92.5299 156.987 93.8158C162.406 102.736 164.884 112.982 164.156 123.445C163.228 136.774 157.19 148.976 147.154 157.802C146.716 158.187 146.274 158.563 145.828 158.929C145.267 159.389 144.579 159.589 143.908 159.542ZM147.785 82.6429C148.782 83.5521 149.062 85.0934 148.318 86.22C147.427 87.568 145.651 87.8298 144.427 86.9378C137.177 80.2008 127.768 76.0039 117.859 75.1144C105.792 74.0314 94.0514 77.739 84.7984 85.5538C83.8736 86.3341 82.8383 87.1708 81.781 88.0392C80.6853 88.94 79.0753 88.8094 78.1377 87.7457C77.3183 86.8169 77.2734 85.4702 77.9591 84.4957C79.0661 83.4336 80.1134 82.4331 80.509 82.0844C90.7053 73.1166 103.783 68.696 117.335 69.638C128.637 70.4239 139.447 75.0411 147.785 82.6429ZM73.3475 141.183C73.9666 139.963 74.8257 138.908 75.9018 138.047C77.9107 136.443 80.4218 135.724 82.9734 136.023C85.4845 136.318 87.7373 137.568 89.3164 139.543C89.5303 139.81 89.7534 140.068 89.9748 140.327C90.0794 140.435 90.1887 140.537 90.2888 140.651C95.7776 146.887 103.366 150.638 111.655 151.215C120.078 151.8 128.207 149.052 134.546 143.477C134.997 143.081 135.436 142.672 135.862 142.252L135.867 142.248C136.259 141.86 136.639 141.461 137.01 141.055C137.05 141.011 137.092 140.97 137.131 140.926C137.448 140.575 137.752 140.214 138.051 139.85C138.141 139.741 138.235 139.635 138.323 139.525C138.681 139.078 139.029 138.623 139.362 138.158C140.237 136.933 141.94 136.652 143.166 137.527C144.391 138.403 144.673 140.106 143.798 141.33C143.48 141.775 143.148 142.21 142.81 142.641C141.415 144.415 139.854 146.071 138.148 147.57C130.708 154.115 121.164 157.34 111.276 156.653C101.546 155.976 92.6381 151.572 86.195 144.251C86.1009 144.144 86.0019 144.044 85.899 143.949C85.6151 143.618 85.3299 143.288 85.0564 142.946C84.3795 142.099 83.4139 141.564 82.3382 141.438C81.2444 141.31 80.1683 141.618 79.3072 142.305C78.8451 142.675 78.4766 143.127 78.2123 143.647C77.5314 144.991 75.8886 145.527 74.5481 144.847C74.4324 144.788 74.3255 144.721 74.2221 144.648C73.1236 143.885 72.7255 142.411 73.3475 141.183ZM66.699 89.4633C66.055 88.7378 65.5155 87.9187 65.1126 87.0251C64.5147 85.7 64.2067 84.2199 64.2712 82.6686C64.3665 80.375 65.9897 77.5229 67.1572 76.1865C71.0684 71.7083 79.1364 65.6254 86.3866 62.188C97.5224 56.9098 109.764 54.9665 121.905 56.5187C122.514 56.5964 123.122 56.6748 123.73 56.7701C125.218 57.0035 126.235 58.3983 126.001 59.8852C125.973 60.0626 125.929 60.2335 125.871 60.3957C125.434 61.5975 124.195 62.3614 122.885 62.1556C111.236 60.328 99.4227 62.0423 88.7235 67.1139C84.7037 69.0195 80.9266 71.372 77.4639 74.1075C75.1815 75.9099 72.4173 78.3068 71.0508 80.0019C70.5566 80.6148 69.8164 81.9415 69.8188 82.8992C69.8209 83.9885 70.1609 84.9922 70.8245 85.7536C70.8633 85.7985 70.9022 85.8425 70.9426 85.885C71.9046 87.0163 71.8113 88.7122 70.7091 89.7263C70.5658 89.8576 70.4124 89.9709 70.2522 90.067C69.166 90.7163 67.7443 90.553 66.8336 89.6142C66.7879 89.5645 66.7438 89.5137 66.699 89.4633ZM115.498 178.526C117.008 178.487 118.257 179.67 118.3 181.174C118.334 182.408 117.542 183.472 116.427 183.839C115.892 183.862 115.357 183.877 114.823 183.887C114.561 183.892 114.299 183.897 114.037 183.899C114.077 183.898 114.117 183.9 114.157 183.899C114.911 183.894 115.669 183.871 116.427 183.839C116.182 183.92 115.921 183.968 115.65 183.975C113.569 184.033 111.461 183.989 109.385 183.845C94.2065 182.79 80.1803 176.52 69.3577 166.06C76.9607 173.356 86.054 178.567 95.9278 181.407C95.6002 181.312 95.2754 181.212 94.9498 181.113C87.4401 178.816 80.451 175.167 74.281 170.316C74.2181 170.267 74.154 170.22 74.0915 170.171C74.0295 170.122 73.9678 170.072 73.9061 170.024C73.8969 170.016 73.8873 170.009 73.8777 170.002C73.7956 169.937 73.7135 169.872 73.6322 169.807C73.6093 169.788 73.5897 169.767 73.5677 169.747C70.4787 167.247 67.6003 164.444 64.9742 161.353C64.8485 161.204 64.7211 161.056 64.5962 160.906C63.6738 159.751 63.8376 158.067 64.9771 157.115C66.0464 156.224 67.5939 156.29 68.5839 157.214C68.6656 157.291 68.7445 157.371 68.8182 157.459C68.936 157.6 69.0573 157.737 69.1767 157.877C70.5736 159.53 72.055 161.094 73.6093 162.568C73.9914 162.929 74.3751 163.289 74.7656 163.638C74.9258 163.782 75.0888 163.922 75.2506 164.064C75.7476 164.5 76.247 164.932 76.7568 165.349C76.7841 165.371 76.8109 165.394 76.8381 165.416C86.1457 173.013 97.5454 177.557 109.763 178.406C111.664 178.539 113.594 178.579 115.498 178.526Z" fill="white"/>
<defs>
<radialGradient id="paint0_radial_74_101" cx="0" cy="0" r="1" gradientUnits="userSpaceOnUse" gradientTransform="translate(7.15256e-06 240) rotate(-45) scale(339.411)">
<stop stop-color="#52ACFF"/>
<stop offset="1" stop-color="#184DF6"/>
</radialGradient>
</defs>
</svg>
