<svg viewBox="713 284 512 512" fill="none" xmlns="http://www.w3.org/2000/svg">
<path d="M969.808 418.236C969.808 420.528 969.808 421.675 969.888 422.846C970.386 430.102 973.461 437.526 978.24 443.009C979.011 443.893 979.714 444.597 981.121 446.004C987.385 452.267 995.93 455.671 1004.79 455.671H1100.79C1119.97 455.671 1129.56 455.671 1136.89 459.404C1143.34 462.689 1148.58 467.929 1151.86 474.374C1155.6 481.702 1155.6 491.294 1155.6 510.479V568.434C1155.6 587.619 1155.6 597.211 1151.86 604.539C1148.58 610.984 1143.34 616.225 1136.89 619.509C1129.56 623.242 1119.97 623.242 1100.79 623.242H1004.55C995.788 623.242 987.332 626.614 981.132 632.814C979.715 634.231 979.006 634.94 978.231 635.83C973.46 641.308 970.389 648.722 969.889 655.97C969.808 657.147 969.808 658.299 969.808 660.602V740.513C969.808 759.697 969.808 769.29 966.074 776.617C962.79 783.063 957.549 788.303 951.104 791.587C943.776 795.321 934.184 795.321 914.999 795.321H837.009C817.824 795.321 808.232 795.321 800.904 791.587C794.458 788.303 789.218 783.063 785.934 776.617C782.2 769.29 782.2 759.697 782.2 740.513V678.59C782.2 659.405 782.2 649.813 785.934 642.485C789.218 636.04 794.458 630.799 800.904 627.515C808.232 623.781 817.824 623.781 837.009 623.781H933.491C933.963 623.781 934.2 623.781 934.477 623.777C942.99 623.639 951.631 620.06 957.748 614.138C957.948 613.945 958.039 613.854 958.221 613.671C959.885 612.007 960.717 611.175 961.584 610.161C966.186 604.782 969.154 597.616 969.704 590.559C969.808 589.229 969.808 587.911 969.808 585.275V493.562C969.808 490.916 969.808 489.593 969.703 488.257C969.151 481.208 966.186 474.051 961.593 468.677C960.722 467.658 959.885 466.821 958.21 465.146C951.943 458.879 943.399 455.46 934.536 455.46H837.009C817.824 455.46 808.232 455.46 800.904 451.727C794.458 448.443 789.218 443.202 785.934 436.757C782.2 429.429 782.2 419.837 782.2 400.652V338.725C782.2 319.541 782.2 309.948 785.934 302.621C789.218 296.175 794.458 290.935 800.904 287.651C808.232 283.917 817.824 283.917 837.009 283.917H914.999C934.184 283.917 943.776 283.917 951.104 287.651C957.549 290.935 962.79 296.175 966.074 302.621C969.808 309.948 969.808 319.541 969.808 338.725V418.236Z" fill="#FF3C00"/>
</svg>
